<svg width="20" height="14" viewBox="0 0 20 14" fill="none" xmlns="http://www.w3.org/2000/svg">
<path d="M0.544 13L4.576 1.224H6.208L10.24 13H8.928L7.744 9.64H3.008L1.856 13H0.544ZM3.328 8.488H7.424L5.392 2.344L3.328 8.488ZM14.081 13.016C13.5903 13.016 13.1797 12.9307 12.849 12.76C12.5183 12.5787 12.2677 12.2907 12.097 11.896C11.9263 11.4907 11.841 10.9467 11.841 10.264V0.792H13.105V10.104C13.105 10.616 13.153 11.0053 13.249 11.272C13.345 11.528 13.4837 11.7093 13.665 11.816C13.8463 11.912 14.0597 11.976 14.305 12.008L15.169 12.104V13.016H14.081ZM18.7841 13.016C18.2935 13.016 17.8828 12.9307 17.5521 12.76C17.2215 12.5787 16.9708 12.2907 16.8001 11.896C16.6295 11.4907 16.5441 10.9467 16.5441 10.264V0.792H17.8081V10.104C17.8081 10.616 17.8561 11.0053 17.9521 11.272C18.0481 11.528 18.1868 11.7093 18.3681 11.816C18.5495 11.912 18.7628 11.976 19.0081 12.008L19.8721 12.104V13.016H18.7841Z" fill="#F1F2F3"/>
</svg>
